<svg version="1.1" xmlns="http://www.w3.org/2000/svg" xmlns:xlink="http://www.w3.org/1999/xlink" viewBox="0 0 172 172">
  <g fill="none" fill-rule="nonzero" stroke="none" stroke-width="1" stroke-linecap="butt" stroke-linejoin="miter" stroke-miterlimit="10" stroke-dasharray="" stroke-dashoffset="0" font-family="none" font-weight="none" font-size="none" text-anchor="none" style="mix-blend-mode: normal">
    <path d="M0,172v-172h172v172z" fill="none"></path>
    <g fill="#000000">
      <path d="M14.33333,0c-7.91917,0 -14.33333,6.41417 -14.33333,14.33333v143.33333c0,7.91917 6.41417,14.33333 14.33333,14.33333h143.33333c7.91917,0 14.33333,-6.41417 14.33333,-14.33333v-143.33333c0,-7.91917 -6.41417,-14.33333 -14.33333,-14.33333zM68.43327,41.85221l1.18978,1.17578c-19.61517,4.67983 -28.5127,13.4515 -28.5127,13.4515c0.71667,-0.24367 19.36097,-9.37826 31.49414,-9.37826c20.05233,-1.47633 36.34956,-0.22452 57.0254,9.95215c0,0 -8.90458,-8.1915 -27.32292,-13.4375l1.63769,-1.6097c2.54417,0.00717 16.01817,0.48095 30.43034,11.01595c0,0 16.125,27.55124 16.125,61.40658c-0.53033,-0.65217 -10.00377,14.56603 -34.3776,15.08919c0,0 -4.13035,-4.66371 -7.06868,-8.73438c14.26167,-4.09217 19.58236,-12.28972 19.58236,-12.28972c-23.03367,14.49817 -51.21177,15.69813 -72.91244,6.4388c-2.40083,-1.1395 -5.3273,-2.30968 -8.25846,-3.49935c-0.26517,0 -0.39573,-0.12261 -0.5319,-0.26595v-0.042c-0.14333,-0.129 -0.26673,-0.26595 -0.5319,-0.26595h-0.5319c-1.7845,-1.17533 -2.98145,-1.74968 -2.98145,-1.74968c0,0 5.34129,8.17639 19.02246,12.27572c-3.59767,4.09933 -7.15267,8.76237 -7.15267,8.76237c-24.36667,-0.57333 -33.25781,-15.78906 -33.25781,-15.78906c0,-33.89833 16.04102,-61.40657 16.04102,-61.40657c16.039,-11.66733 30.89225,-11.09994 30.89225,-11.09993zM104.09864,41.86621h0.18196l-0.27994,0.09798zM65.49382,80.45703l-0.028,0.028c-6.22067,0 -11.2819,5.23032 -11.2819,11.70182c0,6.42133 5.0684,11.65983 11.2819,11.65983c6.22067,0 11.2679,-5.24432 11.2679,-11.71582c0,-6.4285 -5.01924,-11.67383 -11.23991,-11.67383zM105.8623,80.45703v0.028c-6.192,0 -11.26756,5.23032 -11.2819,11.70182c0,6.42133 5.0684,11.67383 11.2819,11.67383c6.22067,0 11.2819,-5.24432 11.2819,-11.71582c0,-6.43567 -5.03974,-11.68782 -11.2819,-11.68783z"></path>
    </g>
  </g>
</svg>
