<svg version="1.1" xmlns="http://www.w3.org/2000/svg" xmlns:xlink="http://www.w3.org/1999/xlink" viewBox="0 0 172 172">
  <g fill="none" fill-rule="nonzero" stroke="none" stroke-width="1" stroke-linecap="butt" stroke-linejoin="miter" stroke-miterlimit="10" stroke-dasharray="" stroke-dashoffset="0" font-family="none" font-weight="none" font-size="none" text-anchor="none" style="mix-blend-mode: normal">
    <path d="M0,172v-172h172v172z" fill="none"></path>
    <g fill="#000000">
      <path d="M48.16,13.76c-18.95899,0 -34.4,15.44101 -34.4,34.4v75.68c0,18.95899 15.44101,34.4 34.4,34.4h75.68c18.95899,0 34.4,-15.44101 34.4,-34.4v-75.68c0,-18.95899 -15.44101,-34.4 -34.4,-34.4zM44.72,55.04h82.56c0.6192,0 1.2032,0.06987 1.7536,0.24187l-33.81547,33.78188c-5.0912,5.0912 -13.37865,5.0912 -18.46985,0l-33.78188,-33.78188c0.5504,-0.172 1.1344,-0.24187 1.7536,-0.24187zM38.08187,60.1664l25.86719,25.8336l-25.86719,25.8336c-0.172,-0.5504 -0.24187,-1.1344 -0.24187,-1.7536v-48.16c0,-0.6192 0.06987,-1.2032 0.24187,-1.7536zM133.91813,60.1664c0.172,0.5504 0.24187,1.1344 0.24187,1.7536v48.16c0,0.6192 -0.06988,1.2032 -0.24187,1.7536l-25.90078,-25.8336zM68.8,90.85094l3.06375,3.09735c3.8872,3.8872 9.01145,5.81172 14.10265,5.81172c5.1256,0 10.21546,-1.92452 14.10266,-5.81172l3.09734,-3.09735l25.86719,25.86719c-0.5504,0.172 -1.1344,0.24187 -1.7536,0.24187h-82.56c-0.6192,0 -1.2032,-0.06988 -1.7536,-0.24187z"></path>
    </g>
  </g>
</svg>
