<svg version="1.1" xmlns="http://www.w3.org/2000/svg" xmlns:xlink="http://www.w3.org/1999/xlink" viewBox="0 0 172 172">
  <g fill="none" fill-rule="nonzero" stroke="none" stroke-width="1" stroke-linecap="butt" stroke-linejoin="miter" stroke-miterlimit="10" stroke-dasharray="" stroke-dashoffset="0" font-family="none" font-weight="none" font-size="none" text-anchor="none" style="mix-blend-mode: normal">
    <path d="M0,172v-172h172v172z" fill="none"></path>
    <g fill="#000000">
      <path d="M157.66667,0h-143.33333c-7.91917,0 -14.33333,6.41417 -14.33333,14.33333v143.33333c0,7.91917 6.41417,14.33333 14.33333,14.33333h143.33333c7.91917,0 14.33333,-6.41417 14.33333,-14.33333v-143.33333c0,-7.91917 -6.41417,-14.33333 -14.33333,-14.33333zM106.2315,147.619c-3.30383,0.63067 -4.43617,-1.34733 -4.43617,-3.01c0,-2.05683 0.07883,-8.87233 0.07883,-17.35767c0,-5.934 -2.09267,-9.8255 -4.35733,-11.72467c14.35483,-1.55517 29.42633,-6.91583 29.42633,-31.26817c0,-6.91583 -2.50117,-12.57033 -6.61483,-17.0065c0.645,-1.59817 2.82367,-8.041 -0.645,-16.77717c0,0 -5.40367,-1.6985 -17.65867,6.493c-5.16,-1.41183 -10.6425,-2.107 -16.125,-2.13567c-5.4825,0.02867 -10.965,0.731 -16.125,2.13567c-12.3195,-8.1915 -17.72317,-6.493 -17.72317,-6.493c-3.46867,8.729 -1.29,15.17183 -0.56617,16.77717c-4.14233,4.43617 -6.63633,10.09067 -6.63633,17.0065c0,24.28783 15.05717,29.7345 29.37617,31.31833c-1.84183,1.58383 -3.5045,4.37883 -4.085,8.47817c-3.68367,1.61967 -13.03617,4.42183 -18.78383,-5.27467c0,0 -3.40417,-6.0845 -9.88283,-6.52883c0,0 -6.29233,-0.07883 -0.4515,3.8485c0,0 4.24267,1.9565 7.17383,9.2665c0,0 3.784,12.32667 21.72217,8.50683c0.02867,5.28183 0.07883,9.2665 0.07883,10.7715c0,1.68417 -1.1825,3.64783 -4.4075,3.04583c-25.61367,-8.35633 -44.08933,-32.11383 -44.08933,-60.12117c0,-35.002 28.86733,-63.382 64.5,-63.382c35.61833,0 64.5,28.38 64.5,63.382c0,27.96433 -18.46133,51.73617 -44.2685,60.0495z"></path>
    </g>
  </g>
</svg>
