<svg version="1.1" xmlns="http://www.w3.org/2000/svg" xmlns:xlink="http://www.w3.org/1999/xlink" viewBox="0 0 172 172">
  <g fill="none" fill-rule="nonzero" stroke="none" stroke-width="1" stroke-linecap="butt" stroke-linejoin="miter" stroke-miterlimit="10" stroke-dasharray="" stroke-dashoffset="0" font-family="none" font-weight="none" font-size="none" text-anchor="none" style="mix-blend-mode: normal">
    <path d="M0,172v-172h172v172z" fill="none"></path>
    <g fill="#000000">
      <path d="M14.33333,0c-7.91917,0 -14.33333,6.41417 -14.33333,14.33333v143.33333c0,7.91917 6.41417,14.33333 14.33333,14.33333h143.33333c7.91917,0 14.33333,-6.41417 14.33333,-14.33333v-143.33333c0,-7.91917 -6.41417,-14.33333 -14.33333,-14.33333zM88.02962,21.514c15.28982,0.28945 30.85194,6.04464 43.76986,18.53255l-0.08399,0.19596c40.14767,39.99 11.74045,109.15169 -45.44955,109.15169c-2.193,-0.2795 -15.40945,0.49461 -30.71028,-7.76855l-34.05566,8.87435l9.1123,-33.11784c-5.61867,-9.70367 -8.56641,-20.69005 -8.56641,-31.95605c0.01478,-38.73673 32.34612,-64.5489 65.98372,-63.91211zM88.16959,32.08203c-27.91912,-0.6982 -55.21972,20.63586 -55.21972,53.12012c0,18.03133 8.91825,29.15836 9.43425,30.27636l-5.403,19.59635l20.15625,-5.23502c1.21833,0.53033 11.85759,8.5664 29.10059,8.5664h0.08399h0.04199c47.70133,0 71.09031,-57.65046 37.75098,-90.70312c-10.44542,-10.44094 -23.2548,-15.30373 -35.94531,-15.62109zM66.59961,55.75163c0.99617,0 2.32133,-0.39551 3.61133,2.74349c5.547,12.99317 5.79739,13.2141 5.09505,14.68327c-3.27517,6.192 -6.35078,5.98853 -4.73112,8.77636c0.946,1.6125 4.15734,6.85659 8.93034,11.12793c6.1275,5.4825 11.2931,7.16869 12.9056,7.97851c1.59817,0.72384 2.53252,0.65441 3.47135,-0.39192c0.93167,-1.06067 4.02039,-4.65901 5.08106,-6.24284c1.51217,-2.27183 2.28045,-1.73915 14.57129,4.38118l0.05599,-0.40592c1.6125,0.72383 2.6641,1.13065 3.06543,1.86165c0.4085,0.71667 0.41701,3.86541 -0.95183,7.65658c-1.34017,3.79117 -7.75915,7.17607 -10.84798,7.67057c-6.58617,0.946 -10.59592,-0.39775 -19.26042,-4.03125c-16.09633,-6.93733 -26.60423,-23.07118 -27.4069,-24.11751c-7.42467,-10.4705 -9.61666,-20.28962 -0.93783,-29.82845c1.98517,-2.07117 4.2383,-2.12682 7.34863,-1.86165z"></path>
    </g>
  </g>
</svg>
